<?xml version="1.0" encoding="iso-8859-1"?>
<!-- Uploaded to: SVG Repo, www.svgrepo.com, Generator: SVG Repo Mixer Tools -->
<svg fill="black"  version="1.1" id="Layer_1" xmlns="http://www.w3.org/2000/svg" xmlns:xlink="http://www.w3.org/1999/xlink" 
	 viewBox="0 0 305.009 305.009" xml:space="preserve">
<g>
	<g>
		<g>
			<path d="M235.796,247.714h-25.93l20.426-20.426c2.194-2.195,2.811-5.516,1.549-8.353l-47.775-107.389h40.923
				c4.143,0,7.5-3.358,7.5-7.5V67.508c0-3.443-2.346-6.445-5.687-7.277l-55.261-13.768V7.508c0-6.659-8.08-10.023-12.804-5.304
				c-9.909,9.909-74.166,74.166-84.019,84.02c-1.406,1.407-2.196,3.314-2.196,5.304v130.457c0,1.989,0.79,3.896,2.196,5.304
				l20.426,20.426h-25.93c-4.143,0-7.5,3.357-7.5,7.5v42.294c0,4.143,3.357,7.5,7.5,7.5h166.582c4.143,0,7.5-3.357,7.5-7.5v-42.294
				C243.296,251.071,239.939,247.714,235.796,247.714z M156.541,25.614v17.112c-13.285-3.31-10.249-2.553-13.699-3.413
				L156.541,25.614z M87.522,218.878V94.634l42.945-42.945l31.761,7.913c0.003,0.001,0.005,0.001,0.008,0.001l55.253,13.765v23.179
				c-50.202,0-46.837,0.237-46.837,0.237c-3.25,0.822-5.658,3.757-5.658,7.263c0,6.341-5.159,11.5-11.5,11.5s-11.5-5.159-11.5-11.5
				c0-4.143-3.357-7.5-7.5-7.5s-7.5,3.357-7.5,7.5c0,23.767,29.014,35.452,45.517,18.428l43.531,97.85l-27.389,27.389h-72.295
				L87.522,218.878z M228.296,290.008H76.714v-27.294c1.568,0,140.853,0,151.582,0V290.008z"/>
			<path d="M127.226,230.812c2.929-2.93,2.929-7.678,0-10.607l-15.163-15.164v-41.822c0-4.143-3.357-7.5-7.5-7.5s-7.5,3.357-7.5,7.5
				v44.929c0,1.989,0.79,3.896,2.196,5.304l17.36,17.36C119.55,233.741,124.297,233.74,127.226,230.812z"/>
		</g>
	</g>
</g>
</svg>