<svg viewBox="0 0 175 175" fill="black" xmlns="http://www.w3.org/2000/svg">
<path d="M23.1539 33.1879C17.1592 41.9199 13.4802 51.7371 12.3629 61.8885C11.896 66.1308 15.398 69.5 19.515 69.5C23.6934 69.5 26.9218 66.1169 27.4535 62.1365C28.4786 54.4622 31.3505 47.0422 35.9127 40.3969C41.7267 31.9281 50.0616 25.0449 60.0072 20.5215C69.9532 15.998 81.1138 14.015 92.2528 14.7975C101.556 15.4511 110.533 18.0118 118.498 22.2482C121.592 23.894 125.546 23.3414 127.824 20.5429C130.447 17.3208 129.749 12.4184 125.965 10.4159C116.068 5.17733 104.937 2.01686 93.4153 1.20748C79.5557 0.23384 65.6605 2.69961 53.2637 8.33782C40.8666 13.9762 30.442 22.5719 23.1539 33.1879Z" stroke="balck" stroke-width="2"/>
<path d="M167 80H8C4.13401 80 1 83.134 1 87C1 90.866 4.134 94 8 94H167C170.866 94 174 90.866 174 87C174 83.134 170.866 80 167 80Z" stroke="balck" stroke-width="2"/>
<path d="M157.236 131.869C160.093 125.714 161.909 119.224 162.637 112.611C163.104 108.369 159.602 105 155.485 105C151.307 105 148.078 108.383 147.546 112.364C146.896 117.237 145.498 122.019 143.384 126.577C140.354 133.105 135.911 139.044 130.3 144.052C124.689 149.061 118.022 153.039 110.677 155.755C103.332 158.47 95.4558 159.869 87.5 159.869C79.5442 159.869 71.6684 158.47 64.3232 155.755C56.9781 153.039 50.311 149.061 44.7001 144.052C39.0894 139.044 34.6456 133.105 31.6162 126.577C29.5015 122.019 28.1044 117.237 27.4535 112.364C26.9218 108.383 23.6934 105 19.515 105C15.398 105 11.896 108.369 12.363 112.611C13.0907 119.224 14.9075 125.714 17.7639 131.869C21.5677 140.066 27.1394 147.507 34.1546 153.769C41.1697 160.03 49.4918 164.992 58.6433 168.376C67.7948 171.76 77.6 173.5 87.5 173.5C97.4 173.5 107.205 171.76 116.357 168.376C125.508 164.992 133.83 160.03 140.845 153.769C147.861 147.507 153.432 140.066 157.236 131.869Z" stroke="balck" stroke-width="2"/>
</svg>
